<?xml version="1.0" standalone="no"?>
<!DOCTYPE svg PUBLIC "-//W3C//DTD SVG 20010904//EN"
 "http://www.w3.org/TR/2001/REC-SVG-20010904/DTD/svg10.dtd">
<svg version="1.0" xmlns="http://www.w3.org/2000/svg"
 width="192.000000pt" height="192.000000pt" viewBox="0 0 192.000000 192.000000"
 preserveAspectRatio="xMidYMid meet">

<g transform="translate(0.000000,192.000000) scale(0.100000,-0.100000)"
fill="#000000" stroke="none">
<path d="M1569 1466 c-2 -2 -31 -6 -64 -10 -97 -10 -127 -15 -178 -28 -43 -11
-51 -17 -64 -50 -11 -27 -23 -40 -42 -44 -14 -3 -32 -8 -40 -10 -7 -2 -55 -11
-105 -19 -50 -8 -127 -21 -171 -29 -83 -15 -135 -24 -170 -30 -11 -2 -49 -9
-84 -15 -73 -14 -88 -11 -93 21 -2 19 -10 23 -46 26 -24 2 -87 -4 -140 -12
-53 -9 -115 -18 -137 -21 -22 -3 -46 -8 -53 -10 -18 -6 -45 -75 -72 -180 -12
-49 -26 -99 -30 -110 -5 -11 -16 -46 -25 -79 -19 -68 -10 -151 24 -227 l21
-46 42 8 c24 4 80 8 124 9 67 0 83 -3 88 -16 7 -19 8 -17 -21 -33 -30 -15 -35
-44 -20 -116 11 -53 16 -60 38 -63 15 -2 183 25 375 58 192 34 439 77 549 96
379 66 538 95 547 100 4 3 8 25 8 49 0 37 3 44 25 49 33 8 48 38 35 70 -10 26
-17 30 -57 26 -17 -1 -26 8 -38 36 -19 47 -19 47 7 59 41 19 44 37 17 127 -13
45 -30 84 -37 84 -6 1 -19 2 -27 3 -9 0 -15 11 -15 25 0 14 -4 27 -9 30 -7 5
-29 96 -36 153 -4 28 -27 95 -38 111 -8 11 -77 18 -88 8z m80 -199 c17 -84 29
-161 25 -170 -3 -9 -3 -25 1 -34 6 -17 7 -17 19 -1 6 9 23 18 36 20 22 3 25
-2 32 -42 4 -25 6 -50 4 -56 -3 -7 -27 -18 -55 -25 -52 -13 -65 -31 -39 -57 9
-9 9 -12 -2 -12 -32 0 -39 14 -30 55 13 55 12 59 -5 45 -13 -10 -15 -9 -16 11
-1 17 -3 19 -6 6 -2 -9 -9 -15 -14 -12 -5 4 -9 -5 -9 -18 0 -15 -8 -28 -22
-35 -22 -10 -22 -11 6 -11 21 -1 27 -5 22 -16 -3 -8 0 -15 7 -15 7 0 3 -8 -8
-16 -19 -15 -16 -16 40 -11 33 2 68 8 78 12 13 5 17 2 17 -13 0 -17 -8 -22
-47 -27 -27 -4 -72 -11 -102 -16 -30 -5 -58 -9 -62 -9 -4 0 -10 20 -13 45 -4
24 -10 46 -14 49 -4 2 -63 -4 -132 -13 -88 -12 -127 -14 -132 -7 -23 34 -18
95 16 208 19 65 41 127 49 139 9 12 13 28 10 35 -3 8 0 34 7 58 l12 44 122 20
c192 32 167 47 205 -131z m-579 -124 c-11 -61 -23 -118 -26 -127 -3 -9 -2 -16
4 -16 6 0 12 4 14 9 2 6 37 -31 79 -82 l77 -92 -85 -16 c-76 -15 -88 -15 -122
-2 -58 23 -101 109 -70 140 6 6 9 17 7 23 -3 9 -8 8 -20 -4 -9 -9 -21 -16 -27
-16 -15 0 -14 -33 1 -48 8 -8 9 -15 3 -20 -21 -15 -59 -91 -51 -100 3 -3 15 6
26 19 l20 24 -2 -30 c-3 -28 -6 -30 -40 -29 -21 1 -38 -2 -38 -6 0 -9 -99 -25
-106 -17 -2 2 5 51 16 108 11 57 20 109 20 115 0 6 -31 49 -70 97 -38 47 -70
88 -70 91 0 2 14 -9 31 -25 25 -23 35 -27 45 -18 19 16 17 29 -4 29 -10 0 -19
7 -19 15 0 13 71 35 113 35 8 0 34 -30 57 -67 31 -50 43 -62 46 -48 2 11 10
25 19 31 14 10 8 39 -6 30 -4 -2 -6 13 -4 35 4 35 7 39 39 45 25 5 44 2 64
-10 16 -9 30 -12 34 -7 3 5 -2 14 -12 20 -16 8 -15 10 7 15 39 8 65 12 67 11
2 -1 -6 -51 -17 -112z m-560 84 c0 -2 13 -69 30 -148 18 -87 27 -157 24 -176
-7 -36 7 -44 32 -18 9 8 22 15 30 15 16 0 17 -3 30 -65 9 -39 8 -40 -26 -53
-19 -8 -45 -16 -57 -19 -25 -6 -30 -22 -11 -41 16 -16 7 -22 -20 -15 -15 3
-21 11 -18 22 17 59 17 81 3 75 -12 -4 -14 0 -10 17 4 15 3 20 -5 15 -7 -4
-12 -15 -12 -24 0 -15 -2 -15 -10 -2 -7 11 -10 8 -10 -16 0 -22 -6 -34 -22
-42 -23 -10 -23 -11 5 -11 16 -1 27 -7 27 -15 0 -8 6 -17 13 -19 7 -3 5 -6 -5
-6 -10 -1 -18 -5 -18 -11 0 -10 95 -7 123 5 13 5 17 2 17 -12 0 -18 -12 -22
-105 -35 -116 -16 -106 -20 -120 50 -8 38 -23 40 -155 17 -129 -23 -127 -23
-135 33 -5 37 1 72 25 162 18 63 39 125 46 138 8 12 14 28 12 35 -3 15 23 107
31 108 180 30 291 44 291 36z m1270 -452 c0 -22 -4 -25 -32 -23 -23 2 -33 -2
-36 -14 -2 -12 2 -15 17 -11 12 3 21 1 21 -6 0 -6 -7 -11 -15 -11 -8 0 -15 -7
-15 -15 0 -17 35 -21 45 -5 12 19 35 10 35 -14 0 -20 -6 -24 -41 -30 -22 -4
-55 -4 -73 -1 -30 6 -31 8 -28 45 3 27 -1 45 -12 55 -20 21 -10 38 17 31 12
-3 26 -1 31 3 10 8 39 16 74 20 7 0 12 -10 12 -24z m-152 -38 c4 -32 -23 -38
-33 -7 -3 11 -12 20 -18 20 -7 0 -6 4 3 10 25 16 45 7 48 -23z m-67 -3 c12
-23 11 -27 -4 -39 -24 -17 -21 -28 4 -20 19 6 21 4 15 -19 -6 -26 8 -37 17
-13 4 7 6 6 6 -4 1 -9 -9 -19 -21 -23 -33 -8 -38 -7 -35 7 1 6 -4 11 -10 10
-8 -2 -14 8 -15 25 0 15 -1 34 -2 42 -2 24 -36 25 -36 1 0 -12 -6 -21 -15 -21
-18 0 -19 29 -2 52 11 14 31 21 73 27 6 0 17 -11 25 -25z m-128 -9 c4 -8 3
-16 -1 -19 -10 -6 -2 -75 9 -82 20 -12 7 -32 -23 -37 -48 -7 -64 10 -33 35 26
20 26 41 0 31 -10 -3 -15 2 -15 16 0 12 -4 21 -10 21 -5 0 -10 10 -10 21 0 16
5 20 19 16 10 -2 25 -1 32 4 20 12 26 11 32 -6z m-106 -60 c-1 -38 2 -55 11
-55 6 0 12 -9 12 -20 0 -17 -7 -20 -40 -20 l-40 0 4 60 c4 59 -4 77 -19 43 -5
-10 -9 -22 -10 -28 0 -5 -4 -17 -7 -25 -4 -8 -6 -26 -5 -40 4 -55 -41 -13 -69
65 -7 19 -8 19 -11 -3 -3 -12 2 -36 11 -52 13 -28 13 -31 -4 -40 -34 -18 -40
-12 -35 34 4 32 1 48 -10 59 -24 24 -18 33 30 44 44 10 46 9 60 -16 14 -27 14
-28 29 23 3 9 21 16 43 19 21 2 41 4 45 5 3 1 6 -23 5 -53z m-246 -18 c-8 -8
-4 -35 14 -94 8 -25 -4 -30 -23 -11 -9 9 -12 8 -12 -5 0 -10 -8 -17 -19 -17
-15 0 -19 8 -19 39 -1 33 2 39 16 33 10 -3 5 5 -10 20 -16 14 -28 30 -28 36 0
15 31 24 45 12 9 -8 14 -6 19 7 6 15 8 15 16 3 5 -8 5 -19 1 -23z m-158 -42
c-4 -16 -10 -33 -15 -36 -14 -9 20 -39 37 -33 8 4 15 12 15 20 0 8 5 14 11 14
6 0 8 -7 5 -16 -4 -12 -2 -15 9 -10 8 3 15 1 15 -4 0 -6 0 -13 0 -17 0 -5 -8
-9 -17 -9 -10 -1 -38 -7 -63 -13 -56 -13 -69 -13 -50 -1 8 5 11 10 5 10 -5 0
-10 19 -11 42 0 23 -5 43 -12 46 -7 2 -12 12 -12 23 0 17 6 19 44 17 44 -3 44
-4 39 -33z m-186 -1 c7 -18 -17 -38 -31 -24 -11 11 -1 40 14 40 6 0 13 -7 17
-16z m-86 -24 c8 13 13 10 33 -13 19 -24 24 -26 29 -13 4 9 11 16 17 16 6 0 9
-4 6 -9 -4 -5 -2 -11 2 -13 5 -1 11 -19 15 -40 5 -33 3 -37 -20 -43 -26 -6
-53 9 -53 30 0 7 -9 15 -19 18 -14 3 -21 -2 -25 -17 -9 -32 -7 -36 9 -30 8 4
15 1 15 -5 0 -6 -13 -11 -28 -11 -27 0 -29 2 -30 45 0 25 -5 52 -11 59 -17 20
6 38 31 23 15 -10 21 -9 29 3z m-123 -16 c5 -9 13 -15 18 -14 5 1 13 -17 18
-39 5 -23 13 -41 17 -41 5 0 9 -6 9 -14 0 -14 -76 -34 -86 -23 -3 3 -1 21 4
40 8 30 7 39 -9 56 -22 23 -24 37 -6 44 21 9 26 8 35 -9z m-68 -13 c0 -26 -19
-31 -52 -14 -35 17 -36 27 -4 19 14 -3 28 -2 31 4 10 17 25 11 25 -9z m-78
-21 c7 -11 19 -20 26 -20 7 0 15 -7 19 -16 4 -10 8 -12 13 -4 11 17 40 0 40
-25 0 -32 -28 -51 -83 -59 -46 -5 -48 -5 -45 17 2 18 8 21 36 19 24 -3 32 1
32 13 0 9 -4 14 -10 10 -5 -3 -25 1 -45 9 -36 16 -46 41 -23 64 17 17 26 15
40 -8z"/>
<path d="M1380 1340 c0 -5 4 -10 9 -10 6 0 13 5 16 10 3 6 -1 10 -9 10 -9 0
-16 -4 -16 -10z"/>
<path d="M1506 1321 c-19 -21 -12 -28 13 -12 7 5 12 14 9 21 -2 7 -10 4 -22
-9z"/>
<path d="M1410 1228 c0 -38 -32 -188 -40 -188 -4 0 -15 -12 -25 -26 -17 -27
-17 -27 9 -22 14 3 26 1 26 -4 0 -5 12 -2 28 6 15 8 35 17 46 20 13 4 17 13
13 27 -4 16 1 23 24 31 18 6 29 17 29 28 0 10 3 25 6 34 4 11 1 16 -10 16 -10
0 -16 -9 -16 -23 0 -26 -35 -54 -43 -34 -2 7 -10 45 -17 85 -13 68 -30 98 -30
50z"/>
<path d="M1314 1219 c-7 -12 15 -31 28 -23 9 6 -1 34 -12 34 -5 0 -12 -5 -16
-11z"/>
<path d="M1595 1190 c-3 -5 -1 -10 4 -10 6 0 11 5 11 10 0 6 -2 10 -4 10 -3 0
-8 -4 -11 -10z"/>
<path d="M1350 1170 c0 -5 5 -10 10 -10 6 0 10 5 10 10 0 6 -4 10 -10 10 -5 0
-10 -4 -10 -10z"/>
<path d="M905 1169 c-4 -6 -5 -13 -2 -16 7 -7 27 6 27 18 0 12 -17 12 -25 -2z"/>
<path d="M980 1125 c-7 -8 -8 -15 -2 -15 5 0 15 7 22 15 7 8 8 15 2 15 -5 0
-15 -7 -22 -15z"/>
<path d="M900 1089 c0 -5 5 -7 10 -4 6 3 10 8 10 11 0 2 -4 4 -10 4 -5 0 -10
-5 -10 -11z"/>
<path d="M1017 983 c-9 -9 -9 -33 1 -33 4 0 13 9 20 20 10 16 10 20 -1 20 -8
0 -17 -3 -20 -7z"/>
<path d="M780 933 c0 -8 5 -13 12 -11 18 6 21 25 3 25 -8 0 -15 -7 -15 -14z"/>
<path d="M270 1150 c0 -5 4 -10 9 -10 6 0 13 5 16 10 3 6 -1 10 -9 10 -9 0
-16 -4 -16 -10z"/>
<path d="M396 1131 c-17 -19 -17 -19 3 -14 12 3 21 12 21 19 0 18 -4 18 -24
-5z"/>
<path d="M307 1050 c-3 -8 -13 -55 -22 -103 -10 -58 -23 -95 -35 -107 -29 -29
-25 -39 13 -35 67 7 92 20 95 48 2 19 11 29 28 33 18 5 24 13 24 35 0 16 5 29
13 29 8 0 7 3 -3 9 -19 13 -30 5 -30 -22 0 -12 -9 -28 -19 -34 -19 -12 -21 -8
-36 65 -21 99 -22 100 -28 82z"/>
<path d="M205 1039 c-4 -6 0 -18 9 -27 15 -15 16 -15 16 5 0 25 -15 38 -25 22z"/>
<path d="M485 1000 c3 -5 8 -10 11 -10 2 0 4 5 4 10 0 6 -5 10 -11 10 -5 0 -7
-4 -4 -10z"/>
<path d="M240 980 c0 -5 5 -10 10 -10 6 0 10 5 10 10 0 6 -4 10 -10 10 -5 0
-10 -4 -10 -10z"/>
<path d="M875 610 c3 -5 8 -10 11 -10 2 0 4 5 4 10 0 6 -5 10 -11 10 -5 0 -7
-4 -4 -10z"/>
<path d="M660 551 c0 -5 7 -12 16 -15 14 -5 15 -4 4 9 -14 17 -20 19 -20 6z"/>
<path d="M340 509 c0 -5 5 -7 10 -4 6 3 10 8 10 11 0 2 -4 4 -10 4 -5 0 -10
-5 -10 -11z"/>
</g>
</svg>
